<svg width="126" height="32" viewBox="0 0 126 32" fill="none" xmlns="http://www.w3.org/2000/svg">
<path d="M14.6289 6.0332C14.8633 5.91602 15.0566 5.85742 15.209 5.85742C15.4434 5.85742 15.666 5.96289 15.877 6.17383C16.0879 6.38477 16.3164 6.73633 16.5625 7.22852C16.8672 7.83789 17.0195 8.32422 17.0195 8.6875C17.0195 9.08594 16.8086 9.39648 16.3867 9.61914L6.10352 14.752L16.3867 19.8848C16.8086 20.1074 17.0195 20.418 17.0195 20.8164C17.0195 21.1797 16.8672 21.666 16.5625 22.2754C16.3164 22.7676 16.0879 23.1191 15.877 23.3301C15.666 23.541 15.4434 23.6465 15.209 23.6465C15.0566 23.6465 14.8633 23.5879 14.6289 23.4707L0.917969 16.4043C0.625 16.252 0.414062 16.0586 0.285156 15.8242C0.167969 15.5898 0.109375 15.2324 0.109375 14.752C0.109375 14.2715 0.167969 13.9141 0.285156 13.6797C0.414062 13.4453 0.625 13.252 0.917969 13.0996L14.6289 6.0332Z" fill="#2B3173"/>
<path d="M36.5664 8.37109C37.6445 8.37109 38.4941 8.81055 39.1152 9.68945C39.7363 10.5684 40.0469 11.9043 40.0469 13.6973V23.8926C40.0469 24.291 39.959 24.5781 39.7832 24.7539C39.6191 24.918 39.3379 25 38.9395 25H36.7598C36.3613 25 36.0742 24.918 35.8984 24.7539C35.7344 24.5781 35.6523 24.291 35.6523 23.8926V14.6992C35.6523 14.0781 35.5762 13.6211 35.4238 13.3281C35.2832 13.0352 35.0547 12.8887 34.7383 12.8887C34.1875 12.8887 33.748 13.3164 33.4199 14.1719C33.1035 15.0273 32.9453 16.2754 32.9453 17.916V23.8926C32.9453 24.291 32.8574 24.5781 32.6816 24.7539C32.5176 24.918 32.2363 25 31.8379 25H29.6582C29.2598 25 28.9727 24.918 28.7969 24.7539C28.6328 24.5781 28.5508 24.291 28.5508 23.8926V14.6992C28.5508 14.0781 28.4746 13.6211 28.3223 13.3281C28.1816 13.0352 27.9531 12.8887 27.6367 12.8887C27.0859 12.8887 26.6465 13.3164 26.3184 14.1719C26.002 15.0273 25.8438 16.2754 25.8438 17.916V23.8926C25.8438 24.291 25.7559 24.5781 25.5801 24.7539C25.416 24.918 25.1348 25 24.7363 25H22.5566C22.1582 25 21.8711 24.918 21.6953 24.7539C21.5312 24.5781 21.4492 24.291 21.4492 23.8926V12.3613H20.4473C20.166 12.3613 19.9492 12.3145 19.7969 12.2207C19.6445 12.127 19.5332 11.9512 19.4629 11.6934C19.3809 11.4355 19.3398 11.0605 19.3398 10.5684C19.3398 10.0762 19.3809 9.70117 19.4629 9.44336C19.5332 9.18555 19.6445 9.00977 19.7969 8.91602C19.9492 8.81055 20.166 8.75781 20.4473 8.75781H23.5059C23.9043 8.75781 24.1855 8.8457 24.3496 9.02148C24.5254 9.18555 24.6133 9.4668 24.6133 9.86523V12.3965C25.1641 11.0723 25.8086 10.0703 26.5469 9.39062C27.2969 8.71094 28.1172 8.37109 29.0078 8.37109C30.7422 8.37109 31.8613 9.56055 32.3652 11.9395C32.9043 10.7676 33.5312 9.88281 34.2461 9.28516C34.9609 8.67578 35.7344 8.37109 36.5664 8.37109ZM52.2109 8.37109C53.9922 8.37109 55.5098 8.75781 56.7637 9.53125C58.0176 10.293 58.9609 11.3594 59.5938 12.7305C60.2383 14.0898 60.5605 15.6484 60.5605 17.4062C60.5605 17.8047 60.4727 18.0859 60.2969 18.25C60.1328 18.4141 59.8516 18.4961 59.4531 18.4961H48.168C48.3906 19.4336 48.8652 20.1543 49.5918 20.6582C50.3301 21.1504 51.2617 21.3965 52.3867 21.3965C54.2031 21.3965 56.1719 21.0742 58.293 20.4297C58.4336 20.3828 58.5742 20.3594 58.7148 20.3594C58.9727 20.3594 59.1953 20.4766 59.3828 20.7109C59.5703 20.9453 59.7402 21.3438 59.8926 21.9062C60.0098 22.3398 60.0684 22.709 60.0684 23.0137C60.0684 23.3184 59.998 23.5586 59.8574 23.7344C59.7285 23.8984 59.5117 24.0332 59.207 24.1387C58.0352 24.5254 56.8398 24.8301 55.6211 25.0527C54.4023 25.2754 53.207 25.3867 52.0352 25.3867C50.2539 25.3867 48.7188 25.0234 47.4297 24.2969C46.1406 23.5703 45.1562 22.5684 44.4766 21.291C43.8086 20.002 43.4746 18.5312 43.4746 16.8789C43.4746 15.2383 43.8262 13.7734 44.5293 12.4844C45.2324 11.1953 46.2461 10.1875 47.5703 9.46094C48.8945 8.73438 50.4414 8.37109 52.2109 8.37109ZM52.2109 12.3613C50.0664 12.3613 48.7422 13.2637 48.2383 15.0684H55.9727C55.7734 14.2129 55.3457 13.5508 54.6895 13.082C54.0449 12.6016 53.2188 12.3613 52.2109 12.3613ZM74.7109 1.9375C75.1094 1.9375 75.3906 2.02539 75.5547 2.20117C75.7305 2.36523 75.8184 2.64648 75.8184 3.04492V21.3965H80.7578C81.0391 21.3965 81.2559 21.4492 81.4082 21.5547C81.5605 21.6484 81.6719 21.8242 81.7422 22.082C81.8242 22.3398 81.8652 22.7148 81.8652 23.207C81.8652 23.6992 81.8242 24.0742 81.7422 24.332C81.6719 24.5898 81.5605 24.7656 81.4082 24.8594C81.2559 24.9531 81.0391 25 80.7578 25H66.625C66.3438 25 66.127 24.9531 65.9746 24.8594C65.8223 24.7656 65.7051 24.5898 65.623 24.332C65.5527 24.0742 65.5176 23.6992 65.5176 23.207C65.5176 22.7148 65.5527 22.3398 65.623 22.082C65.7051 21.8242 65.8223 21.6484 65.9746 21.5547C66.127 21.4492 66.3438 21.3965 66.625 21.3965H71.4238V5.54102H67.3281C67.0469 5.54102 66.8301 5.49414 66.6777 5.40039C66.5254 5.30664 66.4082 5.13086 66.3262 4.87305C66.2559 4.61523 66.2207 4.24023 66.2207 3.74805C66.2207 3.25586 66.2559 2.88086 66.3262 2.62305C66.4082 2.36523 66.5254 2.18945 66.6777 2.0957C66.8301 1.99023 67.0469 1.9375 67.3281 1.9375H74.7109Z" fill="#F0F1FF" fill-opacity="0.9"/>
<path d="M100.357 0.408203C101.143 0.408203 101.799 0.537109 102.326 0.794922C102.865 1.05273 103.135 1.38086 103.135 1.7793C103.135 1.9082 103.111 2.02539 103.064 2.13086L91.3574 30.5723C91.1465 31.0762 90.666 31.3281 89.916 31.3281C89.1309 31.3281 88.4688 31.1992 87.9297 30.9414C87.4023 30.6836 87.1387 30.3555 87.1387 29.957C87.1387 29.8281 87.1621 29.7109 87.209 29.6055L98.916 1.16406C99.127 0.660156 99.6074 0.408203 100.357 0.408203Z" fill="url(#paint0_linear_10_6)"/>
<path d="M124.598 13.0996C124.891 13.252 125.096 13.4453 125.213 13.6797C125.342 13.9141 125.406 14.2715 125.406 14.752C125.406 15.2324 125.342 15.5898 125.213 15.8242C125.096 16.0586 124.891 16.252 124.598 16.4043L110.887 23.4707C110.652 23.5879 110.459 23.6465 110.307 23.6465C110.072 23.6465 109.85 23.541 109.639 23.3301C109.428 23.1191 109.199 22.7676 108.953 22.2754C108.648 21.666 108.496 21.1797 108.496 20.8164C108.496 20.418 108.707 20.1074 109.129 19.8848L119.412 14.752L109.129 9.61914C108.707 9.39648 108.496 9.08594 108.496 8.6875C108.496 8.32422 108.648 7.83789 108.953 7.22852C109.199 6.73633 109.428 6.38477 109.639 6.17383C109.85 5.96289 110.072 5.85742 110.307 5.85742C110.459 5.85742 110.652 5.91602 110.887 6.0332L124.598 13.0996Z" fill="#2B3173"/>
<defs>
<linearGradient id="paint0_linear_10_6" x1="74.5" y1="-3" x2="74.5" y2="51" gradientUnits="userSpaceOnUse">
<stop stop-color="#88C6E2"/>
<stop offset="0.635417" stop-color="#88C6E2" stop-opacity="0"/>
</linearGradient>
</defs>
</svg>
